<?xml version="1.0" standalone="no"?>
<!DOCTYPE svg PUBLIC "-//W3C//DTD SVG 20010904//EN"
 "http://www.w3.org/TR/2001/REC-SVG-20010904/DTD/svg10.dtd">
<svg version="1.0" xmlns="http://www.w3.org/2000/svg"
 width="630.000000pt" height="630.000000pt" viewBox="0 0 630.000000 630.000000"
 preserveAspectRatio="xMidYMid meet">
<metadata>
Created by potrace 1.11, written by Peter Selinger 2001-2013
</metadata>
<g transform="translate(0.000000,630.000000) scale(0.100000,-0.100000)"
fill="#000000" stroke="none">
<path d="M1289 6296 c-2 -2 -24 -7 -49 -9 -137 -16 -315 -70 -445 -136 -78
-39 -135 -71 -145 -81 -3 -3 -32 -23 -65 -45 -75 -51 -235 -209 -303 -300
-135 -183 -239 -434 -269 -651 -10 -74 -11 -3770 -1 -3839 34 -227 115 -436
242 -620 134 -195 339 -371 546 -468 175 -82 286 -115 450 -135 73 -9 3740 -9
3805 0 422 58 785 288 1017 643 109 166 191 388 216 582 10 79 9 3753 -1 3828
-19 140 -57 271 -119 405 -35 75 -122 227 -138 240 -3 3 -19 23 -36 45 -50 69
-243 255 -263 255 -5 0 -11 4 -13 9 -6 15 -140 97 -230 140 -98 47 -239 95
-331 112 -34 6 -73 14 -87 17 -28 7 -3774 14 -3781 8z"/>
</g>
</svg>
