<?xml version="1.0" standalone="no"?>
<!DOCTYPE svg PUBLIC "-//W3C//DTD SVG 20010904//EN"
 "http://www.w3.org/TR/2001/REC-SVG-20010904/DTD/svg10.dtd">
<svg version="1.0" xmlns="http://www.w3.org/2000/svg"
 width="630.000000pt" height="630.000000pt" viewBox="0 0 630.000000 630.000000"
 preserveAspectRatio="xMidYMid meet">
<metadata>
Created by potrace 1.11, written by Peter Selinger 2001-2013
</metadata>
<g transform="translate(0.000000,630.000000) scale(0.100000,-0.100000)"
fill="#000000" stroke="none">
<path d="M3025 5704 c-149 -16 -321 -66 -453 -133 -459 -232 -792 -753 -837
-1311 -4 -47 -23 -157 -42 -245 -29 -131 -41 -168 -67 -205 -18 -25 -56 -85
-86 -135 -64 -108 -140 -185 -380 -390 -290 -247 -449 -418 -493 -533 -34 -86
-18 -171 39 -208 53 -35 204 11 357 109 32 21 59 37 61 37 2 0 34 18 71 41 67
40 181 89 210 89 12 0 15 -18 15 -96 0 -307 111 -658 301 -949 l58 -90 -69
-32 c-88 -40 -206 -121 -256 -176 -107 -115 -168 -251 -162 -363 3 -62 2 -65
-22 -70 -65 -14 -127 -42 -157 -70 -59 -56 -38 -130 49 -175 164 -84 900 -147
1828 -156 536 -6 975 5 1370 32 239 17 492 42 570 56 30 5 92 16 138 25 100
17 196 55 222 86 27 32 26 88 -2 121 -26 29 -123 75 -171 81 -18 2 -35 4 -39
5 -5 0 -8 30 -8 66 0 211 -184 438 -442 546 -32 13 -58 27 -58 31 0 4 25 42
55 84 116 163 229 426 275 645 11 52 25 155 31 229 6 74 12 136 14 138 8 9
131 -49 232 -110 161 -97 236 -134 314 -155 63 -16 68 -16 93 1 54 35 68 72
62 166 -6 103 -16 135 -72 223 -72 111 -235 271 -534 522 -145 123 -231 213
-279 295 -24 41 -64 104 -89 139 -41 60 -46 74 -67 195 -13 72 -38 210 -55
306 -98 553 -237 809 -565 1045 -103 74 -313 182 -430 221 -151 50 -398 81
-530 68z m409 -98 c196 -51 424 -189 531 -323 26 -32 49 -65 52 -73 3 -8 13
-24 22 -35 13 -16 11 -16 -10 3 -14 12 -34 22 -45 21 -18 0 -18 -1 1 -10 16
-7 12 -8 -15 -5 -54 7 -1662 7 -1687 0 -15 -4 -23 -2 -23 6 0 10 -3 10 -15 0
-27 -23 -16 1 29 59 170 220 455 368 753 389 137 10 290 -2 407 -32z m-338
-1210 c44 -44 43 -56 -6 -56 -42 0 -44 2 -64 68 -11 35 30 28 70 -12z m298
-48 c25 -36 20 -46 -21 -43 -33 2 -39 6 -44 31 -14 62 -12 66 20 49 17 -8 37
-25 45 -37z m-39 -424 c163 -40 251 -135 215 -232 -7 -20 -18 -42 -24 -48 -6
-6 -29 -35 -51 -63 -34 -44 -41 -49 -54 -36 -13 12 -18 11 -40 -13 -13 -15
-27 -26 -29 -25 -17 6 -62 60 -58 70 3 7 1 23 -4 35 -5 13 -9 16 -9 8 -2 -26
-20 4 -23 37 -1 21 -8 33 -21 37 -10 2 -17 12 -15 21 2 10 -8 24 -22 34 -20
13 -23 13 -16 1 6 -11 4 -11 -6 1 -7 9 -27 23 -44 32 -36 19 -195 72 -243 82
l-35 7 25 14 c105 58 304 75 454 38z m-577 -180 c9 -60 -2 -47 321 -378 63
-64 79 -86 61 -81 -63 19 -212 151 -335 299 -65 78 -89 128 -80 163 7 28 29
26 33 -3z m590 -269 c-3 -3 -9 2 -12 12 -6 14 -5 15 5 6 7 -7 10 -15 7 -18z
m-1180 -1831 c82 -16 219 -78 264 -118 89 -80 133 -187 109 -268 -18 -61 -41
-95 -52 -77 -6 9 -12 10 -16 4 -5 -6 -39 -12 -78 -14 -38 -2 -73 -5 -77 -7 -4
-2 -182 -7 -396 -9 -439 -6 -407 -11 -437 74 -33 95 -6 188 79 272 130 130
379 189 604 143z m2366 -8 c205 -56 336 -185 336 -329 0 -63 -23 -127 -46
-127 -7 0 -11 -6 -8 -13 6 -16 28 -16 -416 -4 -484 12 -495 13 -562 33 -37 11
-48 120 -21 200 20 59 104 146 179 186 50 26 161 62 219 72 59 9 261 -3 319
-18z"/>
</g>
</svg>
